<svg width="256" height="256" version="1.1" viewBox="0 0 67.733 67.733" xmlns="http://www.w3.org/2000/svg"><g stroke-width=".26458"><circle cx="4.1625" cy="13.755" r=".044113" stroke="#000"/><g fill="#500"><path d="m7.3478 24.363c-0.34433-1.9685 0.25453-3.8529 1.5291-5.3814 0.41772-0.50093 0.91482-0.92994 1.3722-1.3949 0.56624-0.42729 1.1635-0.81631 1.6987-1.2819 0.30204-0.26273-1.3965 0.6772-0.99619 0.67078 0.8168-0.0131 1.5478-0.54243 2.3508-0.69251 1.5949-0.29808 3.422-0.27357 5.0185-0.01371 0.82179 0.13376 1.6164 0.4003 2.4246 0.60046 2.284 0.80914 4.3693 1.9759 5.8972 3.9096 1.0587 1.3399 1.8418 3.0022 2.401 4.6023 0.27474 0.78607 0.44318 1.6054 0.66477 2.408 0.57625 2.6616 0.58606 5.3829-0.36656 7.9601-0.58081 1.5713-0.88192 1.8782-1.7836 3.3078-2.1451 3.0186-4.755 5.6615-7.3776 8.2609-1.0303 1.1567-2.4154 2.047-3.2281 3.3868-0.18543 0.31128-0.27291 0.65826-0.3613 1.0051l3.5489-1.687c0.09736-0.3111 0.20448-0.61554 0.39089-0.88754 0.85691-1.2078 2.0566-2.1295 3.0426-3.2244 2.5608-2.6255 5.1315-5.271 7.2347-8.2884 0.8924-1.4578 1.223-1.812 1.7722-3.4146 0.89989-2.6255 0.77662-5.3918 0.13852-8.0594-0.23693-0.81026-0.42586-1.6361-0.71079-2.4308-0.55969-1.5609-1.4083-3.4105-2.4263-4.7369-1.5415-2.0085-3.6741-3.2152-6.0141-4.0565-0.81959-0.21456-1.6247-0.49494-2.4588-0.64367-1.5918-0.28386-3.4733-0.3439-5.0756-0.09675-3.4496 0.5321-6.4149 2.5923-9.0596 4.7657-1.0704 1.1308-1.691 1.6105-2.39 2.9986-0.65678 1.3041-0.79858 2.8657-0.7026 4.2975l3.4662-1.8832z"/><path d="m27.456 31.236c5.2404-3.5634 10.102-7.6497 15.025-11.632 4.0433-3.3168 8.1162-6.6052 11.996-10.114l-3.4139 1.3979c-3.6623 3.4493-7.5437 6.6577-11.423 9.858-5.1153 4.1349-10.194 8.3558-15.754 11.89l3.57-1.4003z"/><path d="m14.621 27.445c1.1437 0.13941 2.0866 0.23122 3.2467 0.51084 5.8921 1.4203 11.372 4.0683 16.818 6.6541 8.5387 4.3249 16.298 9.9608 23.565 16.149 1.4892 1.2797 2.9115 2.6306 4.2946 4.0229l3.1247-1.9302c-1.5215-1.3126-3.0659-2.5978-4.6577-3.825-7.6194-5.8675-15.511-11.407-24.008-15.946-4.1638-2.0611-5.1181-2.5982-9.2864-4.4186-1.878-0.82021-4.8853-2.0668-6.9368-2.7294-0.62684-0.20245-2.189-0.55051-2.9777-0.73109l-3.1826 2.244z"/></g></g></svg>
